# xmcd CD database file
#
# Track frame offsets:
#	150
#	17620
#	29507
#	45490
#	62561
#	85142
#	106712
#	126576
#	140232
#	162623
#	175058
#	185915
#	205354
#	227429
#	236392
#	245430
#	260882
#
# Disc length: 3703 seconds
#
# Revision: 4
# Processed by: cddbd v1.5.1PL0 Copyright (c) Steve Scherf et al.
# Submitted via: CDex 1.50Beta7
#
DISCID=f20e7511
DTITLE=J.J.Milteau - Bastille Blues
DYEAR=1991
DGENRE=
TTITLE0=Le Wolf
TTITLE1=Boogie Mix
TTITLE2=Reunion
TTITLE3=Au Bellevue I
TTITLE4=Elegant Luther
TTITLE5=Rue Du Rendez-vous
TTITLE6=Sweet 70's
TTITLE7=Insouciance
TTITLE8=Jurong Bird Park
TTITLE9=Bastille Blues
TTITLE10=Au Bellevue II
TTITLE11=Taj Mahal
TTITLE12=Chicken
TTITLE13=Ruine Babines Blues
TTITLE14=A Vous De Jouer
TTITLE15=Butte Aux Cailles
TTITLE16=Cafe Friday
EXTD=YEAR: 1991
EXTT0=
EXTT1=
EXTT2=
EXTT3=
EXTT4=
EXTT5=
EXTT6=
EXTT7=
EXTT8=
EXTT9=
EXTT10=
EXTT11=
EXTT12=
EXTT13=
EXTT14=
EXTT15=
EXTT16=
PLAYORDER=
